<svg xmlns="http://www.w3.org/2000/svg" viewBox="0 0 24 24" fill="none" stroke="#5b7973" stroke-width="1.9" stroke-linecap="round" stroke-linejoin="round">
  <circle cx="12" cy="12" r="3.2"/>
  <path d="M19.1 14.1a1 1 0 0 0 .2 1.1l.1.1a1.7 1.7 0 0 1 0 2.4l-.4.4a1.7 1.7 0 0 1-2.4 0l-.1-.1a1 1 0 0 0-1.1-.2 1 1 0 0 0-.6.9v.2A1.7 1.7 0 0 1 13.1 21h-.6a1.7 1.7 0 0 1-1.7-1.7v-.2a1 1 0 0 0-.7-.9 1 1 0 0 0-1.1.2l-.1.1a1.7 1.7 0 0 1-2.4 0l-.4-.4a1.7 1.7 0 0 1 0-2.4l.1-.1a1 1 0 0 0 .2-1.1 1 1 0 0 0-.9-.6h-.2A1.7 1.7 0 0 1 3 13.1v-.6a1.7 1.7 0 0 1 1.7-1.7h.2a1 1 0 0 0 .9-.7 1 1 0 0 0-.2-1.1l-.1-.1a1.7 1.7 0 0 1 0-2.4l.4-.4a1.7 1.7 0 0 1 2.4 0l.1.1a1 1 0 0 0 1.1.2 1 1 0 0 0 .6-.9v-.2A1.7 1.7 0 0 1 12.5 3h.6a1.7 1.7 0 0 1 1.7 1.7v.2a1 1 0 0 0 .7.9 1 1 0 0 0 1.1-.2l.1-.1a1.7 1.7 0 0 1 2.4 0l.4.4a1.7 1.7 0 0 1 0 2.4l-.1.1a1 1 0 0 0-.2 1.1 1 1 0 0 0 .9.6h.2a1.7 1.7 0 0 1 1.7 1.7v.6a1.7 1.7 0 0 1-1.7 1.7h-.2a1 1 0 0 0-.9.7Z"/>
</svg>
